<svg width="400" height="400" viewBox="0 0 400 400" fill="none" xmlns="http://www.w3.org/2000/svg">
  <!-- Background Glow -->
  <circle cx="200" cy="200" r="150" fill="url(#paint0_radial)" fill-opacity="0.2"/>
  
  <!-- Main Gear (Tools) -->
  <path d="M200 110C195.582 110 192 113.582 192 118V130.151C184.28 131.789 177.018 134.862 170.529 139.155L161.944 130.569C158.819 127.445 153.753 127.445 150.629 130.569L130.569 150.629C127.445 153.753 127.445 158.819 130.569 161.944L139.155 170.529C134.862 177.018 131.789 184.28 130.151 192H118C113.582 192 110 195.582 110 200C110 204.418 113.582 208 118 208H130.151C131.789 215.72 134.862 222.982 139.155 229.471L130.569 238.056C127.445 241.181 127.445 246.247 130.569 249.371L150.629 269.431C153.753 272.555 158.819 272.555 161.944 269.431L170.529 260.845C177.018 265.138 184.28 268.211 192 269.849V282C192 286.418 195.582 290 200 290C204.418 290 208 286.418 208 282V269.849C215.72 268.211 222.982 265.138 229.471 260.845L238.056 269.431C241.181 272.555 246.247 272.555 249.371 269.431L269.431 249.371C272.555 246.247 272.555 241.181 269.431 238.056L260.845 229.471C265.138 222.982 268.211 215.72 269.849 208H282C286.418 208 290 204.418 290 200C290 195.582 286.418 192 282 192H269.849C268.211 184.28 265.138 177.018 260.845 170.529L269.431 161.944C272.555 158.819 272.555 153.753 269.431 150.629L249.371 130.569C246.247 127.445 241.181 127.445 238.056 130.569L229.471 139.155C222.982 134.862 215.72 131.789 208 130.151V118C208 113.582 204.418 110 200 110ZM200 160C222.091 160 240 177.909 240 200C240 222.091 222.091 240 200 240C177.909 240 160 222.091 160 200C160 177.909 177.909 160 200 160Z" fill="url(#paint1_linear)" />

  <!-- Bar Chart Illustration -->
  <rect x="180" y="185" width="8" height="30" rx="2" fill="white" />
  <rect x="192" y="175" width="8" height="40" rx="2" fill="white" />
  <rect x="204" y="195" width="8" height="20" rx="2" fill="white" />
  <rect x="216" y="180" width="8" height="35" rx="2" fill="white" />

  <!-- Data Points / Sparkles -->
  <circle cx="160" cy="160" r="4" fill="#3B82F6" />
  <circle cx="240" cy="240" r="4" fill="#60A5FA" />
  <circle cx="240" cy="160" r="3" fill="#93C5FD" />
  <circle cx="160" cy="240" r="3" fill="#BFDBFE" />

  <!-- Definitions -->
  <defs>
    <radialGradient id="paint0_radial" cx="0" cy="0" r="1" gradientUnits="userSpaceOnUse" gradientTransform="translate(200 200) rotate(90) scale(150)">
      <stop stop-color="#185FA5"/>
      <stop offset="1" stop-color="#185FA5" stop-opacity="0"/>
    </radialGradient>
    <linearGradient id="paint1_linear" x1="110" y1="110" x2="290" y2="290" gradientUnits="userSpaceOnUse">
      <stop stop-color="#185FA5"/>
      <stop offset="1" stop-color="#3B82F6"/>
    </linearGradient>
  </defs>
</svg>
